<mxfile host="app.diagrams.net" modified="2021-02-03T06:14:40.458Z" agent="5.0 (Windows NT 10.0; Win64; x64) AppleWebKit/537.36 (KHTML, like Gecko) Chrome/88.0.4324.104 Safari/537.36" etag="7KrpcC00kN0etkAGGCDL" version="14.2.9" type="github">
  <diagram id="FQWNqDm1_RsnFKClCZnh" name="Page-1">
    <mxGraphModel dx="782" dy="475" grid="1" gridSize="10" guides="1" tooltips="1" connect="1" arrows="1" fold="1" page="1" pageScale="1" pageWidth="850" pageHeight="1100" math="0" shadow="0">
      <root>
        <mxCell id="0" />
        <mxCell id="1" parent="0" />
        <mxCell id="YIA1PV5x0rVo6H_r65dG-1" value="pilot/model/context.go" style="rounded=1;whiteSpace=wrap;html=1;verticalAlign=top;" vertex="1" parent="1">
          <mxGeometry x="110" y="130" width="330" height="400" as="geometry" />
        </mxCell>
        <mxCell id="YIA1PV5x0rVo6H_r65dG-6" value="tyep proxy struct(sidecar 抽象)" style="swimlane;childLayout=stackLayout;horizontal=1;startSize=30;horizontalStack=0;rounded=1;fontSize=14;fontStyle=0;strokeWidth=2;resizeParent=0;resizeLast=1;shadow=0;dashed=0;align=center;" vertex="1" parent="1">
          <mxGeometry x="130" y="210" width="280" height="120" as="geometry" />
        </mxCell>
        <mxCell id="YIA1PV5x0rVo6H_r65dG-7" value="+Type NodeType&#xa;+ServiceInstances []*ServiceInstance&#xa;+SidecarScope" style="align=left;strokeColor=none;fillColor=none;spacingLeft=4;fontSize=12;verticalAlign=top;resizable=0;rotatable=0;part=1;" vertex="1" parent="YIA1PV5x0rVo6H_r65dG-6">
          <mxGeometry y="30" width="280" height="90" as="geometry" />
        </mxCell>
      </root>
    </mxGraphModel>
  </diagram>
</mxfile>
